<svg width="503" height="190" viewBox="0 0 503 190" fill="none" xmlns="http://www.w3.org/2000/svg">
<path d="M62.3496 55.501H41.5371V77H30.6973V24.3906H64.9512V33.1709H41.5371V46.7568H62.3496V55.501ZM93.1709 73.0254C90.5934 76.1569 87.0283 77.7227 82.4756 77.7227C78.2842 77.7227 75.0804 76.5182 72.8643 74.1094C70.6722 71.7005 69.5521 68.1715 69.5039 63.5225V37.9043H79.9463V63.1611C79.9463 67.2321 81.8011 69.2676 85.5107 69.2676C89.0518 69.2676 91.4847 68.0391 92.8096 65.582V37.9043H103.288V77H93.46L93.1709 73.0254ZM120.776 37.9043L121.102 42.4209C123.896 38.9281 127.642 37.1816 132.339 37.1816C136.482 37.1816 139.565 38.3981 141.589 40.8311C143.612 43.264 144.648 46.9014 144.696 51.7432V77H134.254V51.9961C134.254 49.7799 133.772 48.1781 132.809 47.1904C131.845 46.1787 130.243 45.6729 128.003 45.6729C125.064 45.6729 122.86 46.9255 121.391 49.4307V77H110.948V37.9043H120.776ZM151.02 57.1631C151.02 51.0687 152.381 46.2148 155.103 42.6016C157.849 38.9883 161.594 37.1816 166.34 37.1816C170.146 37.1816 173.289 38.6029 175.771 41.4453V21.5H186.249V77H176.818L176.312 72.8447C173.711 76.0967 170.363 77.7227 166.268 77.7227C161.667 77.7227 157.969 75.916 155.175 72.3027C152.405 68.6654 151.02 63.6188 151.02 57.1631ZM161.462 57.9219C161.462 61.5833 162.1 64.3896 163.377 66.3408C164.654 68.292 166.508 69.2676 168.941 69.2676C172.169 69.2676 174.446 67.9066 175.771 65.1846V49.7559C174.47 47.0339 172.217 45.6729 169.014 45.6729C163.979 45.6729 161.462 49.7559 161.462 57.9219ZM227.621 24.3906L241.135 62.5469L254.576 24.3906H268.812V77H257.937V62.6191L259.021 37.7959L244.82 77H237.377L223.213 37.832L224.297 62.6191V77H213.457V24.3906H227.621ZM292.19 62.2217L299.417 37.9043H310.618L294.9 83.0703L294.033 85.1299C291.697 90.2367 287.842 92.79 282.471 92.79C280.953 92.79 279.411 92.5612 277.846 92.1035V84.1904L279.436 84.2266C281.411 84.2266 282.88 83.9255 283.844 83.3232C284.831 82.721 285.602 81.7214 286.156 80.3242L287.385 77.1084L273.69 37.9043H284.928L292.19 62.2217ZM44.8613 111.391L58.375 149.547L71.8164 111.391H86.0527V164H75.1768V149.619L76.2607 124.796L62.0605 164H54.6172L40.4531 124.832L41.5371 149.619V164H30.6973V111.391H44.8613ZM118.247 160.025C115.67 163.157 112.104 164.723 107.552 164.723C103.36 164.723 100.157 163.518 97.9404 161.109C95.7484 158.701 94.6283 155.172 94.5801 150.522V124.904H105.022V150.161C105.022 154.232 106.877 156.268 110.587 156.268C114.128 156.268 116.561 155.039 117.886 152.582V124.904H128.364V164H118.536L118.247 160.025ZM157.415 153.196C157.415 151.92 156.777 150.92 155.5 150.197C154.247 149.451 152.224 148.788 149.43 148.21C140.132 146.259 135.482 142.308 135.482 136.358C135.482 132.89 136.916 129.999 139.782 127.687C142.673 125.35 146.443 124.182 151.092 124.182C156.054 124.182 160.017 125.35 162.979 127.687C165.966 130.023 167.46 133.058 167.46 136.792H157.018C157.018 135.299 156.536 134.07 155.572 133.106C154.609 132.119 153.103 131.625 151.056 131.625C149.297 131.625 147.936 132.022 146.973 132.817C146.009 133.612 145.527 134.624 145.527 135.853C145.527 137.009 146.069 137.948 147.153 138.671C148.261 139.369 150.116 139.984 152.718 140.514C155.319 141.02 157.511 141.598 159.294 142.248C164.81 144.271 167.568 147.776 167.568 152.763C167.568 156.328 166.039 159.218 162.979 161.435C159.92 163.627 155.97 164.723 151.128 164.723C147.852 164.723 144.937 164.145 142.384 162.988C139.854 161.808 137.867 160.206 136.422 158.183C134.977 156.135 134.254 153.931 134.254 151.57H144.154C144.251 153.425 144.937 154.846 146.214 155.834C147.491 156.822 149.201 157.315 151.345 157.315C153.344 157.315 154.85 156.942 155.861 156.195C156.897 155.424 157.415 154.425 157.415 153.196ZM185.346 164H174.867V124.904H185.346V164ZM174.253 114.787C174.253 113.221 174.771 111.933 175.807 110.921C176.867 109.909 178.3 109.403 180.106 109.403C181.889 109.403 183.31 109.909 184.37 110.921C185.43 111.933 185.96 113.221 185.96 114.787C185.96 116.377 185.418 117.678 184.334 118.689C183.274 119.701 181.865 120.207 180.106 120.207C178.348 120.207 176.927 119.701 175.843 118.689C174.783 117.678 174.253 116.377 174.253 114.787ZM210.241 156.304C212.168 156.304 213.734 155.774 214.938 154.714C216.143 153.654 216.769 152.245 216.817 150.486H226.609C226.585 153.136 225.863 155.569 224.441 157.785C223.02 159.977 221.069 161.688 218.588 162.916C216.131 164.12 213.409 164.723 210.422 164.723C204.833 164.723 200.425 162.952 197.197 159.411C193.969 155.846 192.355 150.932 192.355 144.669V143.982C192.355 137.96 193.957 133.155 197.161 129.565C200.365 125.976 204.761 124.182 210.35 124.182C215.24 124.182 219.154 125.579 222.093 128.373C225.056 131.143 226.561 134.841 226.609 139.466H216.817C216.769 137.442 216.143 135.804 214.938 134.552C213.734 133.275 212.144 132.637 210.169 132.637C207.736 132.637 205.893 133.528 204.641 135.311C203.412 137.069 202.798 139.936 202.798 143.91V144.994C202.798 149.017 203.412 151.908 204.641 153.666C205.869 155.424 207.736 156.304 210.241 156.304ZM243.592 164H233.113V124.904H243.592V164ZM232.499 114.787C232.499 113.221 233.017 111.933 234.053 110.921C235.113 109.909 236.546 109.403 238.353 109.403C240.135 109.403 241.556 109.909 242.616 110.921C243.676 111.933 244.206 113.221 244.206 114.787C244.206 116.377 243.664 117.678 242.58 118.689C241.52 119.701 240.111 120.207 238.353 120.207C236.594 120.207 235.173 119.701 234.089 118.689C233.029 117.678 232.499 116.377 232.499 114.787ZM274.883 164C274.401 163.061 274.052 161.892 273.835 160.495C271.306 163.313 268.018 164.723 263.971 164.723C260.141 164.723 256.961 163.615 254.432 161.398C251.926 159.182 250.674 156.388 250.674 153.016C250.674 148.872 252.203 145.693 255.263 143.477C258.346 141.26 262.79 140.14 268.596 140.116H273.401V137.876C273.401 136.069 272.932 134.624 271.992 133.54C271.077 132.456 269.619 131.914 267.62 131.914C265.862 131.914 264.477 132.336 263.465 133.179C262.477 134.022 261.983 135.178 261.983 136.647H251.541C251.541 134.383 252.24 132.287 253.637 130.36C255.034 128.433 257.009 126.928 259.562 125.844C262.116 124.736 264.982 124.182 268.162 124.182C272.98 124.182 276.798 125.398 279.616 127.831C282.459 130.24 283.88 133.636 283.88 138.021V154.967C283.904 158.676 284.422 161.483 285.434 163.386V164H274.883ZM266.247 156.737C267.789 156.737 269.21 156.4 270.511 155.726C271.812 155.027 272.775 154.1 273.401 152.943V146.223H269.499C264.272 146.223 261.49 148.029 261.152 151.643L261.116 152.257C261.116 153.558 261.574 154.63 262.489 155.473C263.405 156.316 264.657 156.737 266.247 156.737ZM301.513 124.904L301.838 129.421C304.632 125.928 308.378 124.182 313.075 124.182C317.218 124.182 320.302 125.398 322.325 127.831C324.349 130.264 325.384 133.901 325.433 138.743V164H314.99V138.996C314.99 136.78 314.508 135.178 313.545 134.19C312.581 133.179 310.979 132.673 308.739 132.673C305.8 132.673 303.596 133.925 302.127 136.431V164H291.685V124.904H301.513Z" fill="#581B98"/>
<path d="M480.5 89C480.5 133.183 444.683 169 400.5 169C356.317 169 320.5 133.183 320.5 89C320.5 44.8172 356.317 9 400.5 9C444.683 9 480.5 44.8172 480.5 89Z" fill="#FAEE1C"/>
<path d="M396 46H437V68H396V46Z" fill="#581B98"/>
<path d="M396 46H413V112H396V46Z" fill="#581B98"/>
<ellipse cx="386.5" cy="113" rx="26.5" ry="20" fill="#581B98"/>
</svg>
