<svg width="1440" height="677" viewBox="0 0 1440 677" fill="none" xmlns="http://www.w3.org/2000/svg">
<rect width="1450" height="677" fill="#581B98"/>
<path d="M1368.11 92.8406C1378.76 135.738 1352.38 179.09 1309.19 189.672C1265.99 200.253 1222.34 174.056 1211.68 131.159C1201.03 88.2624 1227.41 44.9096 1270.6 34.3282C1313.8 23.7467 1357.45 49.9436 1368.11 92.8406Z" fill="#FAEE1C"/>
<path d="M1275.13 71.3291L1315.21 61.5099L1320.52 82.8697L1280.43 92.6889L1275.13 71.3291Z" fill="#581B98"/>
<path d="M1275.13 71.3291L1291.75 67.2577L1307.66 131.337L1291.04 135.408L1275.13 71.3291Z" fill="#581B98"/>
<ellipse rx="26.6735" ry="20.008" transform="matrix(0.971281 -0.237935 0.241059 0.97051 1282 138.654)" fill="#581B98"/>
<path d="M208.895 224.517C199.334 267.667 156.359 294.95 112.909 285.454C69.4592 275.959 41.987 233.281 51.5484 190.131C61.1097 146.98 104.084 119.698 147.534 129.193C190.984 138.688 218.456 181.366 208.895 224.517Z" fill="#FAEE1C"/>
<path d="M135.102 164.361L175.422 173.173L170.661 194.659L130.341 185.847L135.102 164.361Z" fill="#581B98"/>
<path d="M135.102 164.361L151.82 168.015L137.537 232.473L120.819 228.819L135.102 164.361Z" fill="#581B98"/>
<ellipse rx="26.6756" ry="20.0064" transform="matrix(0.976944 0.213498 -0.216335 0.976319 111.26 227.754)" fill="#581B98"/>
<path d="M1311.12 494.569C1323.04 537.137 1297.95 581.24 1255.09 593.076C1212.22 604.912 1167.81 579.999 1155.9 537.431C1143.98 494.863 1169.06 450.76 1211.93 438.924C1254.79 427.088 1299.2 452.001 1311.12 494.569Z" fill="#FAEE1C"/>
<path d="M1217.54 475.777L1257.32 464.794L1263.25 485.99L1223.48 496.973L1217.54 475.777Z" fill="#581B98"/>
<path d="M1217.54 475.777L1234.03 471.223L1251.84 534.811L1235.35 539.365L1217.54 475.777Z" fill="#581B98"/>
<ellipse rx="26.6709" ry="20.01" transform="matrix(0.963926 -0.26617 0.269612 0.962969 1226.4 542.873)" fill="#581B98"/>
<path d="M382.219 531.076C394.137 573.644 369.051 617.747 326.187 629.583C283.324 641.419 238.914 616.506 226.996 573.938C215.078 531.37 240.164 487.267 283.028 475.431C325.891 463.595 370.301 488.508 382.219 531.076Z" fill="#FAEE1C"/>
<path d="M288.643 512.284L328.419 501.301L334.353 522.497L294.577 533.48L288.643 512.284Z" fill="#581B98"/>
<path d="M288.643 512.284L305.135 507.73L322.939 571.318L306.446 575.872L288.643 512.284Z" fill="#581B98"/>
<ellipse rx="26.6709" ry="20.01" transform="matrix(0.963926 -0.26617 0.269612 0.962969 297.5 579.38)" fill="#581B98"/>
</svg>
