<svg width="1440" height="677" viewBox="0 0 1440 677" fill="none" xmlns="http://www.w3.org/2000/svg">
<rect width="1440" height="677" fill="#581B98"/>
<path d="M1343.5 150.672C1354.08 193.569 1327.89 236.922 1284.99 247.503C1242.09 258.085 1198.74 231.888 1188.16 188.991C1177.58 146.094 1203.77 102.741 1246.67 92.1595C1289.57 81.578 1332.92 107.775 1343.5 150.672Z" fill="#FAEE1C"/>
<path d="M1251.16 129.16L1290.97 119.341L1296.24 140.701L1256.43 150.52L1251.16 129.16Z" fill="#581B98"/>
<path d="M1251.16 129.16L1267.67 125.089L1283.48 189.168L1266.97 193.24L1251.16 129.16Z" fill="#581B98"/>
<ellipse cx="1257.99" cy="196.486" rx="26.5" ry="20" transform="rotate(-13.8566 1257.99 196.486)" fill="#581B98"/>
<path d="M269.454 224.517C259.959 267.667 217.281 294.95 174.131 285.454C130.98 275.959 103.698 233.281 113.193 190.131C122.688 146.98 165.366 119.698 208.517 129.193C251.667 138.688 278.95 181.366 269.454 224.517Z" fill="#FAEE1C"/>
<path d="M196.17 164.361L236.212 173.173L231.484 194.659L191.442 185.847L196.17 164.361Z" fill="#581B98"/>
<path d="M196.17 164.361L212.773 168.015L198.589 232.473L181.986 228.819L196.17 164.361Z" fill="#581B98"/>
<ellipse cx="172.493" cy="227.754" rx="26.5" ry="20" transform="rotate(12.4104 172.493 227.754)" fill="#581B98"/>
<path d="M1238.58 488.076C1250.42 530.644 1225.51 574.747 1182.94 586.583C1140.37 598.419 1096.27 573.506 1084.43 530.938C1072.59 488.37 1097.51 444.267 1140.08 432.431C1182.64 420.595 1226.75 445.508 1238.58 488.076Z" fill="#FAEE1C"/>
<path d="M1145.65 469.284L1185.15 458.301L1191.05 479.497L1151.55 490.48L1145.65 469.284Z" fill="#581B98"/>
<path d="M1145.65 469.284L1162.03 464.73L1179.71 528.318L1163.33 532.872L1145.65 469.284Z" fill="#581B98"/>
<ellipse cx="1154.45" cy="536.38" rx="26.5" ry="20" transform="rotate(-15.5385 1154.45 536.38)" fill="#581B98"/>
<path d="M428.583 511.076C440.419 553.644 415.506 597.747 372.938 609.583C330.37 621.419 286.267 596.506 274.431 553.938C262.595 511.37 287.508 467.267 330.076 455.431C372.644 443.595 416.747 468.508 428.583 511.076Z" fill="#FAEE1C"/>
<path d="M335.652 492.284L375.154 481.301L381.047 502.497L341.546 513.48L335.652 492.284Z" fill="#581B98"/>
<path d="M335.652 492.284L352.031 487.73L369.711 551.318L353.333 555.872L335.652 492.284Z" fill="#581B98"/>
<ellipse cx="344.448" cy="559.38" rx="26.5" ry="20" transform="rotate(-15.5385 344.448 559.38)" fill="#581B98"/>
</svg>
